# xmcd
#
# Track frame offsets:
#	150
#	25214
#	33167
#	62916
#	98479
#	118886
#	152586
#	191008
#	211029
#	240203
#	275856
#
# Disc length: 4078 seconds
#
# Revision: 0
# Processed by: cddbd v1.4PL0 Copyright (c) Steve Scherf et al.
# Submitted via: EasyCDDAExtractor 4.6.0.1
#
DISCID=8d0fec0b
DTITLE=Groove Hawgs (Various) - Red White and Blues
DYEAR=2001
DGENRE=Blues
TTITLE0=Red White and Blues (Michael Floorwax)
TTITLE1=Star Spangled Banner (Brian Hornbuckle)
TTITLE2=Stop Yourself (Michael Floorwax)
TTITLE3=My Baby's Got A Black Cat Bone (Michael Hornbuckle)
TTITLE4=Who's Sleeping In That Bed? (Yvonne Reyes)
TTITLE5=Little Wing (Johnny Vaughan)
TTITLE6=Long Time Coming (Derek Terrabull)
TTITLE7=High N' Mighty (Michael Floorwax)
TTITLE8=I Need A Man (Yvonne Reyes)
TTITLE9=Satisfied (Michael Hornbuckle)
TTITLE10=Cold Sweat (Sundance)
EXTD=
EXTT0=
EXTT1=
EXTT2=
EXTT3=
EXTT4=
EXTT5=
EXTT6=
EXTT7=
EXTT8=
EXTT9=
EXTT10=
PLAYORDER=
